<mxfile host="app.diagrams.net" agent="Mozilla/5.0 (Windows NT 10.0; Win64; x64) AppleWebKit/537.36 (KHTML, like Gecko) Chrome/123.0.0.0 Safari/537.36" version="26.0.5">
  <diagram name="第 1 页" id="z3A1faD5pzuTBSrvOsXL">
    <mxGraphModel dx="1434" dy="746" grid="1" gridSize="10" guides="1" tooltips="1" connect="1" arrows="1" fold="1" page="1" pageScale="1" pageWidth="827" pageHeight="1169" math="0" shadow="0">
      <root>
        <mxCell id="0" />
        <mxCell id="1" parent="0" />
        <mxCell id="EmmwezvkARpl-Ky2srci-8" style="edgeStyle=orthogonalEdgeStyle;rounded=0;orthogonalLoop=1;jettySize=auto;html=1;exitX=1;exitY=0.5;exitDx=0;exitDy=0;entryX=0;entryY=0.5;entryDx=0;entryDy=0;" parent="1" source="EmmwezvkARpl-Ky2srci-1" target="EmmwezvkARpl-Ky2srci-2" edge="1">
          <mxGeometry relative="1" as="geometry" />
        </mxCell>
        <mxCell id="EmmwezvkARpl-Ky2srci-9" style="edgeStyle=orthogonalEdgeStyle;rounded=0;orthogonalLoop=1;jettySize=auto;html=1;exitX=1;exitY=0.5;exitDx=0;exitDy=0;entryX=0;entryY=0.5;entryDx=0;entryDy=0;" parent="1" source="EmmwezvkARpl-Ky2srci-1" target="EmmwezvkARpl-Ky2srci-3" edge="1">
          <mxGeometry relative="1" as="geometry" />
        </mxCell>
        <mxCell id="EmmwezvkARpl-Ky2srci-11" style="edgeStyle=orthogonalEdgeStyle;rounded=0;orthogonalLoop=1;jettySize=auto;html=1;entryX=0;entryY=0.5;entryDx=0;entryDy=0;" parent="1" source="EmmwezvkARpl-Ky2srci-1" target="EmmwezvkARpl-Ky2srci-5" edge="1">
          <mxGeometry relative="1" as="geometry" />
        </mxCell>
        <mxCell id="EmmwezvkARpl-Ky2srci-12" style="edgeStyle=orthogonalEdgeStyle;rounded=0;orthogonalLoop=1;jettySize=auto;html=1;exitX=1;exitY=0.5;exitDx=0;exitDy=0;entryX=0;entryY=0.5;entryDx=0;entryDy=0;" parent="1" source="EmmwezvkARpl-Ky2srci-1" target="EmmwezvkARpl-Ky2srci-6" edge="1">
          <mxGeometry relative="1" as="geometry" />
        </mxCell>
        <mxCell id="MLAytG3lQ39f5kODgPbN-3" style="edgeStyle=orthogonalEdgeStyle;rounded=0;orthogonalLoop=1;jettySize=auto;html=1;exitX=1;exitY=0.5;exitDx=0;exitDy=0;entryX=0;entryY=0.5;entryDx=0;entryDy=0;" parent="1" source="EmmwezvkARpl-Ky2srci-1" target="EmmwezvkARpl-Ky2srci-4" edge="1">
          <mxGeometry relative="1" as="geometry" />
        </mxCell>
        <mxCell id="EmmwezvkARpl-Ky2srci-1" value="&lt;font style=&quot;font-size: 15px;&quot;&gt;clife-senior-mall&lt;/font&gt;" style="rounded=0;whiteSpace=wrap;html=1;fillColor=#dae8fc;strokeColor=#6c8ebf;" parent="1" vertex="1">
          <mxGeometry x="40" y="355" width="230" height="60" as="geometry" />
        </mxCell>
        <mxCell id="EmmwezvkARpl-Ky2srci-2" value="&lt;font style=&quot;font-size: 15px;&quot;&gt;clife-senior-mall-app&lt;/font&gt;" style="rounded=0;whiteSpace=wrap;html=1;fillColor=#d5e8d4;strokeColor=#82b366;" parent="1" vertex="1">
          <mxGeometry x="400" y="130" width="230" height="60" as="geometry" />
        </mxCell>
        <mxCell id="EmmwezvkARpl-Ky2srci-3" value="&lt;font style=&quot;font-size: 15px;&quot;&gt;clife-senior-integral-api&lt;/font&gt;" style="rounded=0;whiteSpace=wrap;html=1;fillColor=#d5e8d4;strokeColor=#82b366;" parent="1" vertex="1">
          <mxGeometry x="400" y="240" width="230" height="60" as="geometry" />
        </mxCell>
        <mxCell id="EmmwezvkARpl-Ky2srci-4" value="&lt;font style=&quot;font-size: 15px;&quot;&gt;clife-senior-integral-domain&lt;/font&gt;" style="rounded=0;whiteSpace=wrap;html=1;fillColor=#d5e8d4;strokeColor=#82b366;" parent="1" vertex="1">
          <mxGeometry x="400" y="355" width="230" height="60" as="geometry" />
        </mxCell>
        <mxCell id="EmmwezvkARpl-Ky2srci-5" value="&lt;span style=&quot;font-size: 15px;&quot;&gt;clife-senior-mall-biz-domain&lt;/span&gt;&lt;div&gt;&lt;span style=&quot;font-size: 15px;&quot;&gt;&lt;font style=&quot;color: rgb(255, 0, 0);&quot;&gt;新增模块&lt;/font&gt;&lt;/span&gt;&lt;/div&gt;" style="rounded=0;whiteSpace=wrap;html=1;fillColor=#f8cecc;strokeColor=#b85450;" parent="1" vertex="1">
          <mxGeometry x="400" y="480" width="230" height="60" as="geometry" />
        </mxCell>
        <mxCell id="EmmwezvkARpl-Ky2srci-6" value="&lt;font style=&quot;font-size: 15px;&quot;&gt;clife-senior-mall-common&lt;/font&gt;&lt;div&gt;&lt;font style=&quot;font-size: 15px; color: rgb(255, 0, 0);&quot;&gt;新增模块&lt;/font&gt;&lt;/div&gt;" style="rounded=0;whiteSpace=wrap;html=1;fillColor=#f8cecc;strokeColor=#b85450;" parent="1" vertex="1">
          <mxGeometry x="400" y="590" width="230" height="60" as="geometry" />
        </mxCell>
      </root>
    </mxGraphModel>
  </diagram>
</mxfile>
